<svg width="20" height="19" viewBox="0 0 20 19" fill="none" xmlns="http://www.w3.org/2000/svg">
<path fill-rule="evenodd" clip-rule="evenodd" d="M7.877 11.956L7.99611 11.9561L8.26007 11.9568C10.502 11.9683 15.754 12.1639 15.754 15.4893C15.754 18.5725 11.4406 18.9845 8.0854 19L7.49393 18.9998C5.25199 18.9883 0 18.7927 0 15.4682C0 12.3198 4.495 11.956 7.877 11.956ZM7.877 13.3958C3.646 13.3958 1.5 14.0937 1.5 15.4682C1.5 16.8561 3.646 17.5607 7.877 17.5607C12.108 17.5607 14.254 16.8629 14.254 15.4893C14.254 14.0994 12.108 13.3958 7.877 13.3958ZM17.2041 5.68114C17.6181 5.68114 17.9541 6.00365 17.9541 6.40103L17.954 7.60499L19.25 7.60576C19.664 7.60576 20 7.92827 20 8.32565C20 8.72304 19.664 9.04555 19.25 9.04555L17.954 9.04478L17.9541 10.251C17.9541 10.6484 17.6181 10.9709 17.2041 10.9709C16.7901 10.9709 16.4541 10.6484 16.4541 10.251L16.454 9.04478L15.16 9.04555C14.746 9.04555 14.41 8.72304 14.41 8.32565C14.41 7.92827 14.746 7.60576 15.16 7.60576L16.454 7.60499L16.4541 6.40103C16.4541 6.00365 16.7901 5.68114 17.2041 5.68114ZM7.877 0C10.81 0 13.195 2.29023 13.195 5.10455C13.195 7.91886 10.81 10.2091 7.877 10.2091H7.846C6.427 10.2043 5.097 9.66965 4.1 8.70595C3.102 7.74129 2.555 6.46083 2.55997 5.10167C2.55997 2.29023 4.945 0 7.877 0ZM7.877 1.43979C5.773 1.43979 4.05997 3.08404 4.05997 5.10455C4.056 6.08265 4.448 6.99932 5.163 7.69138C5.879 8.38248 6.833 8.76546 7.849 8.7693L7.877 9.48056V8.7693C9.982 8.7693 11.695 7.12506 11.695 5.10455C11.695 3.08404 9.982 1.43979 7.877 1.43979Z" fill="black"/>
</svg>
