<svg width="136" height="28" viewBox="0 0 136 28" fill="none" xmlns="http://www.w3.org/2000/svg">
<path d="M0 9.33594V14.2604C1.70283 14.2593 3.38919 14.5899 4.96257 15.2335C6.53596 15.8771 7.96549 16.8209 9.16937 18.011C10.373 19.2007 11.3275 20.6132 11.9783 22.1677C12.6292 23.7221 12.9636 25.3881 12.9625 27.0704H17.9421C17.9376 22.3689 16.0459 17.8612 12.6822 14.5364C9.3185 11.2116 4.75748 9.34131 0 9.33594H0Z" fill="black"/>
<path d="M24.9028 0.470215H17.0112C21.0034 2.97036 24.3861 6.31277 26.9166 10.2576V2.45891C26.9162 1.93135 26.7039 1.42552 26.3262 1.05261C25.9486 0.679693 25.4366 0.470215 24.9028 0.470215Z" fill="black"/>
<path d="M4.95833 0.470215H0V4.90401C5.94699 4.91013 11.6487 7.24743 15.8539 11.4031C20.0591 15.5587 22.4244 21.1932 22.4308 27.0702H26.9167V22.1702C25.9024 16.7848 23.2617 11.8291 19.3421 7.95566C15.4225 4.0822 10.4079 1.47253 4.95833 0.470215Z" fill="black"/>
<path d="M39.122 3.39844H35.9614V19.1414H39.122V3.39844Z" fill="black"/>
<path d="M50.743 10.2191C50.2168 9.74643 49.601 9.38168 48.9311 9.146C47.4921 8.64665 45.9239 8.64665 44.4849 9.146C43.8147 9.38151 43.1986 9.74628 42.6722 10.2191C42.1561 10.6894 41.7437 11.2599 41.461 11.8949C41.1688 12.5877 41.0183 13.3308 41.0183 14.0813C41.0183 14.8319 41.1688 15.575 41.461 16.2678C41.7427 16.9046 42.1551 17.4767 42.6722 17.9478C43.1976 18.421 43.8134 18.7856 44.4834 19.0202C45.9223 19.5204 47.4908 19.5204 48.9297 19.0202C49.5999 18.7856 50.2159 18.421 50.7416 17.9478C51.2585 17.4765 51.6709 16.9045 51.9528 16.2678C52.245 15.575 52.3955 14.8319 52.3955 14.0813C52.3955 13.3308 52.245 12.5877 51.9528 11.8949C51.6703 11.2601 51.2585 10.6896 50.743 10.2191ZM48.5727 15.9353C48.0609 16.3909 47.3964 16.643 46.7076 16.643C46.0188 16.643 45.3544 16.3909 44.8426 15.9353C44.4124 15.4105 44.1777 14.7557 44.1777 14.0803C44.1777 13.4049 44.4124 12.7501 44.8426 12.2253C45.3544 11.7697 46.0188 11.5176 46.7076 11.5176C47.3964 11.5176 48.0609 11.7697 48.5727 12.2253C49.0028 12.7501 49.2375 13.4049 49.2375 14.0803C49.2375 14.7557 49.0028 15.4105 48.5727 15.9353Z" fill="black"/>
<path d="M62.0896 10.3543H62.05C61.9038 10.1515 61.7341 9.96641 61.5442 9.80272C61.3143 9.60168 61.0596 9.43 60.7863 9.29172C60.0955 8.94143 59.3286 8.7629 58.5522 8.77162C57.8718 8.75985 57.199 8.91371 56.593 9.21962C56.0283 9.50858 55.5297 9.90909 55.1281 10.3963C54.7186 10.8985 54.4045 11.4698 54.2009 12.0826C53.9845 12.7139 53.8742 13.376 53.8744 14.0426C53.8664 14.7581 53.9878 15.4693 54.2328 16.1426C54.4548 16.7571 54.8009 17.3206 55.25 17.7988C55.6974 18.2668 56.2404 18.6355 56.843 18.8803C57.4982 19.1442 58.2004 19.2751 58.9078 19.2653C59.4311 19.2564 59.9484 19.1542 60.435 18.9636C60.9806 18.7591 61.4533 18.4005 61.7943 17.9325H61.8368V18.9125C61.8486 19.2394 61.7941 19.5653 61.6765 19.871C61.5588 20.1768 61.3804 20.4561 61.1518 20.6926C60.8617 20.9463 60.5226 21.1391 60.1549 21.2594C59.7872 21.3797 59.3986 21.425 59.0126 21.3926C58.4007 21.3994 57.7942 21.2787 57.2326 21.0384C56.6738 20.7917 56.1525 20.4694 55.6835 20.0808L53.9346 22.6603C54.6494 23.2293 55.485 23.6316 56.3791 23.837C57.2637 24.038 58.1686 24.1393 59.0764 24.1387C61.0711 24.1387 62.5564 23.6424 63.5325 22.6498C64.5086 21.6572 64.9969 20.2031 64.9974 18.2874V9.02153H62.0932L62.0896 10.3543ZM61.8998 14.9666C61.7751 15.2629 61.5924 15.532 61.3622 15.7583C61.1278 15.9891 60.853 16.176 60.5511 16.3099C60.2377 16.4475 59.8985 16.5186 59.5556 16.5186C59.2126 16.5186 58.8735 16.4475 58.56 16.3099C58.2622 16.1741 57.991 15.9874 57.7589 15.7583C57.5277 15.5301 57.3442 15.259 57.2191 14.9607C57.0939 14.6623 57.0295 14.3425 57.0295 14.0195C57.0295 13.6966 57.0939 13.3767 57.2191 13.0784C57.3442 12.78 57.5277 12.509 57.7589 12.2807C57.9911 12.0516 58.2623 11.8647 58.56 11.7284C58.8736 11.5913 59.2127 11.5205 59.5556 11.5205C59.8985 11.5205 60.2376 11.5913 60.5511 11.7284C60.8529 11.8628 61.1276 12.0499 61.3622 12.2807C61.7099 12.6261 61.9465 13.0654 62.0421 13.5433C62.1378 14.0212 62.0883 14.5164 61.8998 14.9666Z" fill="black"/>
<path d="M76.8712 10.2191C76.345 9.74643 75.7291 9.38168 75.0592 9.146C73.6202 8.64665 72.052 8.64665 70.613 9.146C69.9429 9.38151 69.3267 9.74628 68.8004 10.2191C68.2842 10.6894 67.8719 11.2599 67.5892 11.8949C67.2969 12.5877 67.1465 13.3308 67.1465 14.0813C67.1465 14.8319 67.2969 15.575 67.5892 16.2678C67.8708 16.9046 68.2833 17.4767 68.8004 17.9478C69.3262 18.4211 69.9425 18.7857 70.613 19.0202C72.0519 19.5204 73.6204 19.5204 75.0592 19.0202C75.7295 18.7856 76.3455 18.421 76.8712 17.9478C77.3883 17.4767 77.8007 16.9046 78.0824 16.2678C78.3746 15.575 78.5251 14.8319 78.5251 14.0813C78.5251 13.3308 78.3746 12.5877 78.0824 11.8949C77.7997 11.2599 77.3873 10.6894 76.8712 10.2191ZM74.7008 15.9353C74.189 16.3909 73.5246 16.643 72.8358 16.643C72.147 16.643 71.4825 16.3909 70.9707 15.9353C70.5406 15.4105 70.3059 14.7557 70.3059 14.0803C70.3059 13.4049 70.5406 12.7501 70.9707 12.2253C71.4825 11.7697 72.147 11.5176 72.8358 11.5176C73.5246 11.5176 74.189 11.7697 74.7008 12.2253C75.131 12.7501 75.3657 13.4049 75.3657 14.0803C75.3657 14.7557 75.131 15.4105 74.7008 15.9353Z" fill="black"/>
<path d="M82.7177 9.09131H81.0227V19.1412H82.7177V9.09131Z" fill="black"/>
<path d="M81.8706 3.93821C81.7062 3.93512 81.543 3.96597 81.3914 4.02876C81.2398 4.09156 81.1031 4.18493 80.9901 4.30291C80.8178 4.47463 80.7007 4.69291 80.6537 4.93026C80.6067 5.16762 80.6318 5.41341 80.7259 5.63666C80.8201 5.85992 80.979 6.05064 81.1826 6.1848C81.3862 6.31896 81.6255 6.39055 81.8702 6.39055C82.1149 6.39055 82.3542 6.31896 82.5578 6.1848C82.7614 6.05064 82.9203 5.85992 83.0145 5.63666C83.1086 5.41341 83.1337 5.16762 83.0867 4.93026C83.0397 4.69291 82.9226 4.47463 82.7503 4.30291C82.6375 4.18488 82.5009 4.09147 82.3494 4.02866C82.1979 3.96586 82.0348 3.93505 81.8706 3.93821Z" fill="black"/>
<path d="M95.256 10.3404C94.7792 9.85932 94.2056 9.48232 93.5723 9.23372C92.8772 8.96297 92.1356 8.82817 91.3885 8.83682C90.6847 8.82883 89.9888 8.98344 89.3563 9.28832C88.7333 9.5945 88.1818 10.0258 87.737 10.5546H87.6917V9.09162H85.9988V24.038H87.6917V17.36H87.7349C88.0947 17.9725 88.6191 18.4745 89.25 18.8104C89.9825 19.2157 90.8114 19.4197 91.6506 19.4012C92.3376 19.4055 93.0183 19.2702 93.6502 19.0036C94.2604 18.7478 94.8112 18.3715 95.2687 17.8976C95.7334 17.4133 96.0988 16.8448 96.3447 16.2232C96.8661 14.8672 96.8661 13.3694 96.3447 12.0134C96.0966 11.3904 95.7267 10.8219 95.256 10.3404ZM94.6582 15.5904C94.5002 16.028 94.253 16.4289 93.932 16.7683C93.6109 17.1077 93.2228 17.3784 92.7917 17.5637C91.8385 17.9495 90.7699 17.9495 89.8167 17.5637C89.385 17.3785 88.9963 17.1075 88.6749 16.7677C88.3535 16.4279 88.1061 16.0265 87.9481 15.5883C87.6154 14.6359 87.6154 13.6007 87.9481 12.6483C88.1061 12.2102 88.3535 11.8087 88.6749 11.4689C88.9963 11.1291 89.385 10.8582 89.8167 10.6729C90.7699 10.2871 91.8385 10.2871 92.7917 10.6729C93.2234 10.8582 93.6121 11.1291 93.9335 11.4689C94.2549 11.8087 94.5023 12.2102 94.6603 12.6483C94.993 13.6007 94.993 14.6359 94.6603 15.5883L94.6582 15.5904Z" fill="black"/>
<path d="M105.274 14.12C104.952 13.882 104.593 13.6971 104.212 13.5726C103.792 13.4328 103.364 13.3215 102.929 13.2394C102.604 13.1844 102.281 13.1129 101.963 13.0252C101.679 12.949 101.402 12.8483 101.137 12.7242C100.924 12.6288 100.731 12.4938 100.57 12.3266C100.433 12.1771 100.359 11.9811 100.364 11.7792C100.361 11.5614 100.425 11.3478 100.549 11.1674C100.671 10.9892 100.83 10.8391 101.016 10.7271C101.214 10.6083 101.431 10.5214 101.657 10.4695C101.889 10.4128 102.127 10.3839 102.366 10.3834C102.82 10.3694 103.269 10.4851 103.658 10.7166C104.01 10.9353 104.304 11.2332 104.517 11.586L105.929 10.6627C105.616 10.0524 105.108 9.56149 104.484 9.26621C103.854 8.97737 103.168 8.83078 102.474 8.83711C102.004 8.836 101.535 8.90105 101.084 9.03031C100.65 9.15239 100.239 9.34139 99.8659 9.59031C99.5088 9.82858 99.2115 10.1444 98.9968 10.5136C98.7745 10.9068 98.662 11.3513 98.671 11.8016C98.6532 12.2424 98.7544 12.6799 98.9642 13.0693C99.1555 13.395 99.4226 13.6709 99.7434 13.8743C100.097 14.095 100.481 14.2649 100.884 14.379C101.319 14.5078 101.775 14.6224 102.253 14.7227C102.529 14.7801 102.797 14.8445 103.057 14.9159C103.301 14.9806 103.535 15.0782 103.753 15.2057C103.944 15.318 104.11 15.4679 104.241 15.646C104.372 15.8433 104.437 16.0762 104.426 16.3117C104.434 16.5592 104.366 16.8032 104.231 17.0117C104.096 17.2093 103.918 17.3744 103.709 17.4947C103.484 17.6274 103.238 17.7221 102.981 17.7747C102.721 17.8313 102.455 17.8601 102.188 17.8608C101.66 17.881 101.137 17.7544 100.678 17.4954C100.256 17.2299 99.8841 16.893 99.5804 16.5L98.2346 17.5311C98.6513 18.1705 99.2426 18.6802 99.9403 19.0011C100.655 19.2816 101.42 19.4168 102.189 19.3987C102.69 19.3991 103.189 19.3416 103.677 19.2272C104.14 19.1213 104.582 18.936 104.981 18.6798C105.362 18.4298 105.677 18.0939 105.902 17.6998C106.145 17.2525 106.265 16.75 106.25 16.2424C106.264 15.806 106.175 15.3725 105.989 14.9761C105.821 14.6401 105.576 14.3471 105.274 14.12Z" fill="black"/>
<path d="M117.485 16.7577V9.09131H115.79V13.9913C115.796 14.5196 115.734 15.0464 115.606 15.5593C115.497 15.999 115.305 16.4142 115.039 16.7829C114.787 17.1257 114.45 17.3991 114.061 17.5774C113.613 17.7738 113.127 17.8695 112.638 17.8574C112.307 17.8839 111.974 17.8314 111.668 17.7043C111.361 17.5773 111.09 17.3794 110.877 17.1273C110.47 16.5418 110.271 15.8395 110.311 15.1302V9.09131H108.616V15.2975C108.611 15.8601 108.687 16.4205 108.844 16.9614C108.98 17.441 109.222 17.8849 109.552 18.2613C109.883 18.6293 110.295 18.9168 110.756 19.1013C111.306 19.3135 111.894 19.4158 112.484 19.4023C112.881 19.4055 113.277 19.351 113.658 19.2406C114.001 19.1416 114.33 18.9973 114.635 18.8115C114.912 18.6428 115.165 18.4369 115.385 18.1997C115.582 17.9887 115.747 17.7497 115.874 17.4906H115.917C115.917 17.7776 115.925 18.0576 115.939 18.3306C115.954 18.6036 115.961 18.8757 115.96 19.1468H117.569C117.569 18.8169 117.554 18.4517 117.525 18.0513C117.496 17.6509 117.483 17.2197 117.485 16.7577Z" fill="black"/>
<path d="M135.805 11.293C135.691 10.8067 135.468 10.352 135.152 9.96299C134.833 9.58658 134.422 9.29736 133.957 9.12298C133.372 8.91442 132.753 8.81612 132.132 8.83319C131.457 8.80406 130.79 8.98022 130.219 9.33789C129.691 9.71257 129.247 10.1917 128.916 10.7449C128.829 10.5727 128.717 10.3758 128.579 10.1541C128.425 9.91474 128.23 9.70387 128.003 9.53108C127.724 9.32133 127.413 9.156 127.082 9.04109C126.638 8.89341 126.17 8.82422 125.702 8.83668C125.305 8.83345 124.909 8.88794 124.529 8.99839C124.185 9.09739 123.855 9.24172 123.55 9.42749C123.273 9.59645 123.021 9.80232 122.801 10.0393C122.603 10.2503 122.438 10.4893 122.312 10.7484H122.268C122.268 10.4614 122.261 10.1828 122.247 9.90839C122.233 9.63399 122.225 9.36449 122.225 9.09219H120.617C120.617 9.42212 120.632 9.78728 120.66 10.1877C120.689 10.5881 120.704 11.0177 120.704 11.4764V19.1421H122.4V14.2463C122.395 13.7178 122.457 13.1907 122.585 12.6776C122.693 12.2377 122.885 11.8224 123.152 11.454C123.404 11.1111 123.74 10.8376 124.129 10.6595C124.577 10.4629 125.063 10.3673 125.553 10.3795C125.843 10.355 126.134 10.4069 126.398 10.5298C126.661 10.6528 126.887 10.8424 127.052 11.0795C127.416 11.816 127.573 12.6354 127.509 13.4525V19.1435H129.2V13.3433C129.195 12.93 129.265 12.5191 129.407 12.1302C129.532 11.7854 129.725 11.4682 129.974 11.1964C130.208 10.9419 130.493 10.7373 130.81 10.5951C131.131 10.4516 131.479 10.3782 131.832 10.3802C132.25 10.3652 132.667 10.4459 133.048 10.6161C133.349 10.7598 133.61 10.9739 133.808 11.2398C133.999 11.503 134.133 11.8027 134.2 12.1197C134.273 12.4514 134.309 12.7898 134.309 13.1291V19.1421H136V13.043C136.006 12.454 135.941 11.8664 135.805 11.293Z" fill="black"/>
</svg>
