<svg width="20" height="20" viewBox="0 0 20 20" fill="none" xmlns="http://www.w3.org/2000/svg">
<path d="M10 20C8.02219 20 6.08879 19.4135 4.4443 18.3147C2.79981 17.2159 1.51809 15.6541 0.761209 13.8268C0.00433268 11.9996 -0.1937 9.98891 0.192152 8.0491C0.578004 6.10929 1.53041 4.32746 2.92894 2.92894C4.32746 1.53041 6.10929 0.578005 8.0491 0.192152C9.98891 -0.193701 11.9996 0.00433159 13.8268 0.761209C15.6541 1.51809 17.2159 2.79981 18.3147 4.4443C19.4135 6.08879 20 8.02219 20 10C19.9947 12.6505 18.9394 15.191 17.0652 17.0652C15.191 18.9394 12.6505 19.9947 10 20ZM10 0.800003C8.18042 0.800003 6.40169 1.33957 4.88876 2.35048C3.37583 3.36139 2.19664 4.79823 1.50031 6.47931C0.803986 8.16039 0.621796 10.0102 0.97678 11.7948C1.33176 13.5795 2.20798 15.2187 3.49462 16.5054C4.78126 17.792 6.42055 18.6682 8.20517 19.0232C9.9898 19.3782 11.8396 19.196 13.5207 18.4997C15.2018 17.8034 16.6386 16.6242 17.6495 15.1112C18.6604 13.5983 19.2 11.8196 19.2 10C19.1974 7.56082 18.2272 5.22231 16.5025 3.49755C14.7777 1.77279 12.4392 0.80265 10 0.800003ZM13.68 9.68C13.7517 9.60241 13.7915 9.50064 13.7915 9.395C13.7915 9.28936 13.7517 9.1876 13.68 9.11L10.28 5.72C10.2436 5.6825 10.2001 5.65269 10.152 5.63233C10.1039 5.61197 10.0522 5.60148 10 5.60148C9.94777 5.60148 9.89608 5.61197 9.84798 5.63233C9.79988 5.65269 9.75636 5.6825 9.72 5.72L6.32 9.11C6.24442 9.18559 6.20195 9.28811 6.20195 9.395C6.20195 9.5019 6.24442 9.60442 6.32 9.68C6.39559 9.75559 6.49811 9.79805 6.605 9.79805C6.7119 9.79805 6.81442 9.75559 6.89 9.68L9.6 6.97V14C9.6 14.1061 9.64215 14.2078 9.71716 14.2828C9.79217 14.3579 9.89392 14.4 10 14.4C10.1061 14.4 10.2078 14.3579 10.2828 14.2828C10.3579 14.2078 10.4 14.1061 10.4 14V6.97L13.11 9.68C13.1876 9.75169 13.2894 9.7915 13.395 9.7915C13.5006 9.7915 13.6024 9.75169 13.68 9.68Z" fill="black"/>
</svg>
