<svg width="19" height="19" viewBox="0 0 19 19" fill="none" xmlns="http://www.w3.org/2000/svg">
<path fill-rule="evenodd" clip-rule="evenodd" d="M4.89608 16.4827C5.57438 16.4827 6.12633 17.0466 6.12633 17.7408C6.12633 18.4351 5.57438 19 4.89608 19C4.21777 19 3.66677 18.4351 3.66677 17.7408C3.66677 17.0466 4.21777 16.4827 4.89608 16.4827ZM15.6124 16.4827C16.2917 16.4827 16.8436 17.0466 16.8436 17.7408C16.8436 18.4351 16.2917 19 15.6124 19C14.9341 19 14.3831 18.4351 14.3831 17.7408C14.3831 17.0466 14.9341 16.4827 15.6124 16.4827ZM0.834051 0.00922444L2.81006 0.35926C3.12831 0.416627 3.37056 0.686932 3.39811 1.01752L3.62136 3.74099L4.45152 3.74136C4.58699 3.74142 4.72102 3.74148 4.85363 3.74154L6.37773 3.74228C6.49921 3.74234 6.61934 3.74241 6.73812 3.74247L8.42095 3.74341C8.52668 3.74348 8.63113 3.74354 8.73433 3.7436L9.9136 3.74437C10.007 3.74444 10.0993 3.7445 10.1903 3.74457L11.2275 3.74535C11.3094 3.74542 11.3902 3.74548 11.4699 3.74555L12.3742 3.74634C12.4454 3.74641 12.5155 3.74648 12.5845 3.74654L13.1789 3.74715C13.242 3.74721 13.3041 3.74728 13.3652 3.74735L14.0536 3.74817C14.1072 3.74824 14.16 3.74831 14.2119 3.74837L14.7931 3.7492C14.8381 3.74927 14.8824 3.74934 14.9258 3.74941L15.2952 3.75005C15.3339 3.75012 15.3718 3.75019 15.409 3.75026L15.8205 3.75111C15.8519 3.75118 15.8827 3.75125 15.9128 3.75133L16.166 3.75197C16.1923 3.75205 16.2178 3.75212 16.2428 3.75219L16.5143 3.75307C16.5346 3.75314 16.5544 3.75321 16.5737 3.75329L16.7331 3.75395C16.7493 3.75403 16.765 3.7541 16.7803 3.75418L16.9415 3.75508C16.9532 3.75515 16.9645 3.75523 16.9754 3.7553L17.0633 3.75598C17.072 3.75606 17.0803 3.75614 17.0883 3.75621L17.1515 3.7569C17.1577 3.75698 17.1635 3.75706 17.169 3.75714L17.2121 3.75783C17.2161 3.75791 17.22 3.75799 17.2236 3.75807L17.2508 3.75877C17.2533 3.75885 17.2556 3.75893 17.2578 3.75901L17.2775 3.75996L17.2809 3.7602C17.2901 3.76108 17.2929 3.76141 17.2929 3.76141C17.822 3.84017 18.2875 4.12311 18.6048 4.55871C18.9221 4.99334 19.0551 5.52909 18.9791 6.06581L18.0776 12.4423C17.9075 13.6557 16.8777 14.5707 15.6807 14.5707H5.30572C4.05456 14.5707 2.99531 13.5711 2.89366 12.2925L2.02346 1.70009L0.5918 1.44729C0.203249 1.37728 -0.0561024 1.00099 0.0103978 0.603312C0.0787981 0.205633 0.45405 -0.0530041 0.834051 0.00922444ZM4.26094 5.1998L3.74106 5.19947L4.31391 12.1729C4.35571 12.7097 4.78417 13.1122 5.30762 13.1122H15.6788C16.1738 13.1122 16.5965 12.735 16.6668 12.2342L17.5693 5.85676C17.5902 5.70508 17.5532 5.55339 17.4629 5.43088C17.3736 5.3074 17.2425 5.22767 17.0943 5.20628C17.0875 5.20654 17.0711 5.20679 17.0456 5.20701L16.9422 5.20762C16.9206 5.20771 16.8968 5.20779 16.871 5.20787L16.3328 5.20871C16.2874 5.20874 16.2402 5.20877 16.1912 5.2088L14.9258 5.20874C14.8552 5.20871 14.7833 5.20868 14.7101 5.20865L13.266 5.20775C13.1794 5.20769 13.092 5.20762 13.0036 5.20755L12.1865 5.20688C12.0934 5.2068 11.9996 5.20672 11.9052 5.20664L11.0397 5.20586C10.9419 5.20577 10.8437 5.20568 10.7451 5.20559L10.1489 5.20503C10.0489 5.20493 9.94853 5.20484 9.84797 5.20474L8.93815 5.20387C8.8367 5.20377 8.7352 5.20368 8.63369 5.20358L8.02507 5.203C7.92379 5.20291 7.82262 5.20281 7.72162 5.20271L7.11817 5.20215C7.0181 5.20206 6.91831 5.20197 6.81887 5.20188L5.93489 5.2011C5.83806 5.20102 5.74175 5.20094 5.64602 5.20086L4.52889 5.19999C4.43874 5.19992 4.3494 5.19986 4.26094 5.1998Z" fill="black"/>
</svg>
