<svg width="19" height="19" viewBox="0 0 19 19" fill="none" xmlns="http://www.w3.org/2000/svg">
<path fill-rule="evenodd" clip-rule="evenodd" d="M9.49867 1.01242C11.0077 0.0108325 13.0123 -0.26587 14.7441 0.316764C18.5111 1.59213 19.6804 5.90342 18.6345 9.33394C17.0206 14.7218 10.1279 18.7408 9.83556 18.9094C9.73162 18.9698 9.61654 19 9.50146 19C9.38638 19 9.27223 18.9708 9.16828 18.9113C8.8778 18.7447 2.0352 14.7852 0.367472 9.33491L0.366544 9.33394C-0.68031 5.90244 0.485336 1.59018 4.24863 0.316764C6.01566 -0.283407 7.94139 -0.0193709 9.49867 1.01242ZM4.67554 1.70807C1.63056 2.73888 0.865842 6.1772 1.69274 8.88868C2.99389 13.1386 8.13442 16.575 9.50053 17.4255C10.8713 16.5662 16.0489 13.0918 17.3083 8.89258C18.1352 6.17817 17.3677 2.73986 14.3181 1.70807C12.8406 1.2102 11.1172 1.51321 9.92744 2.47972C9.67872 2.68042 9.33348 2.68432 9.0829 2.48556C7.82259 1.4908 6.17621 1.19948 4.67554 1.70807Z" fill="black"/>
</svg>
